<svg width="27" height="21" viewBox="0 0 27 21" fill="none" xmlns="http://www.w3.org/2000/svg">
<mask id="path-1-inside-1_217_518" fill="white">
<path fill-rule="evenodd" clip-rule="evenodd" d="M23.7135 6.59786C23.7135 6.8713 23.696 7.14085 23.662 7.40556C25.6266 8.26195 26.9999 10.2212 26.9999 12.5012C26.9999 15.5697 24.5124 18.0573 21.4438 18.0573C20.694 18.0573 19.979 17.9088 19.3264 17.6396C18.3326 19.1465 16.6248 20.1408 14.6847 20.1408C11.6161 20.1408 9.12859 17.6533 9.12859 14.5847C9.12859 14.0084 9.21634 13.4526 9.37921 12.9298L0 6.50748L9.83026 6.2993C9.99459 2.79397 13.038 0 16.7684 0C20.6041 0 23.7135 2.95396 23.7135 6.59786Z"/>
</mask>
<path d="M23.662 7.40556L21.6783 7.15069L21.487 8.63923L22.8628 9.23894L23.662 7.40556ZM19.3264 17.6396L20.0891 15.7907L18.5646 15.1618L17.6567 16.5385L19.3264 17.6396ZM9.37921 12.9298L11.2887 13.5248L11.7282 12.1143L10.5092 11.2796L9.37921 12.9298ZM0 6.50748L-0.0423452 4.50793L-6.26754 4.63976L-1.12997 8.15768L0 6.50748ZM9.83026 6.2993L9.87261 8.29885L11.7406 8.25929L11.8281 6.39296L9.83026 6.2993ZM25.6457 7.66042C25.6905 7.31146 25.7135 6.95678 25.7135 6.59786H21.7135C21.7135 6.78581 21.7015 6.97023 21.6783 7.15069L25.6457 7.66042ZM28.9999 12.5012C28.9999 9.39736 27.1288 6.73502 24.4612 5.57217L22.8628 9.23894C24.1244 9.78887 24.9999 11.045 24.9999 12.5012H28.9999ZM21.4438 20.0573C25.6169 20.0573 28.9999 16.6743 28.9999 12.5012H24.9999C24.9999 14.4652 23.4078 16.0573 21.4438 16.0573V20.0573ZM18.5636 19.4884C19.4539 19.8557 20.4278 20.0573 21.4438 20.0573V16.0573C20.9603 16.0573 20.504 15.9619 20.0891 15.7907L18.5636 19.4884ZM14.6847 22.1408C17.3251 22.1408 19.6479 20.7849 20.996 18.7406L17.6567 16.5385C17.0173 17.5081 15.9244 18.1408 14.6847 18.1408V22.1408ZM7.12859 14.5847C7.12859 18.7579 10.5116 22.1408 14.6847 22.1408V18.1408C12.7207 18.1408 11.1286 16.5487 11.1286 14.5847H7.12859ZM7.46976 12.3349C7.24755 13.048 7.12859 13.8043 7.12859 14.5847H11.1286C11.1286 14.2125 11.1851 13.8571 11.2887 13.5248L7.46976 12.3349ZM10.5092 11.2796L1.12997 4.85728L-1.12997 8.15768L8.24925 14.58L10.5092 11.2796ZM0.0423452 8.50703L9.87261 8.29885L9.78792 4.29975L-0.0423452 4.50793L0.0423452 8.50703ZM16.7684 -2C12.0561 -2 8.05074 1.54926 7.83246 6.20565L11.8281 6.39296C11.9384 4.03867 14.02 2 16.7684 2V-2ZM25.7135 6.59786C25.7135 1.75397 21.6107 -2 16.7684 -2V2C19.5974 2 21.7135 4.15396 21.7135 6.59786H25.7135Z" fill="white" mask="url(#path-1-inside-1_217_518)"/>
</svg>
